<?xml version="1.0" encoding="UTF-8" standalone="no"?><!DOCTYPE svg PUBLIC "-//W3C//DTD SVG 1.1//EN" "http://www.w3.org/Graphics/SVG/1.1/DTD/svg11.dtd"><svg width="100%" height="100%" viewBox="0 0 790 1024" version="1.1" xmlns="http://www.w3.org/2000/svg" xmlns:xlink="http://www.w3.org/1999/xlink" xml:space="preserve" xmlns:serif="http://www.serif.com/" style="fill-rule:evenodd;clip-rule:evenodd;stroke-linecap:round;stroke-linejoin:round;stroke-miterlimit:1.5;"><path id="mano" d="M521.738,486.001c6.822,8.89 18.392,14.315 32.551,17.849c25.14,1.653 39.515,-9.483 31.476,-21.003l-26.625,-15.621c14.281,-1.626 21.237,-4.617 12.08,-10.611l-20.043,-6.003c-6.271,14.615 -29.439,35.389 -29.439,35.389Z" style="fill:#fabc90;stroke:#000;stroke-width:1px;"/><path id="cabello" d="M340.384,189.915c-23.955,-49.66 -41.633,-93.222 -39.489,-117.528c3.868,-19.313 15.964,-35.369 38.487,-47.298c46.805,-19.516 81.95,-15.761 110.215,1.724c24.874,17.443 40.1,18.228 48.272,6.831c2.864,17.139 -7.72,27.126 -19.216,36.628c-27.428,18.077 -58.154,7.997 -65.835,15.412c-4.324,25.184 -16.104,32.271 -13.471,53.786l-9.65,-0.841c0.537,-6.362 -1.385,-11.839 -4.994,-17.891c-1.699,-2.849 -13.327,-5.022 -18.182,-1.398c-4.102,15.244 -2.345,23.716 0.316,31.142l-26.453,39.433Z" style="fill:#683b11;stroke:#000;stroke-width:1px;"/><path id="zapato" d="M341.537,1000.62c-3.744,4.994 -3.213,8.665 0.387,11.384l178.328,-0.671c1.583,-5.87 1.094,-9.663 -2.905,-9.937c3.087,-13.864 6.745,-30.046 -17.767,-31.135c-21.552,-0.624 -43.962,-0.378 -59.179,-7.302l-101.341,6.361l2.477,31.3" style="fill:#342e37;stroke:#000;stroke-width:1px;"/><path id="cara" d="M323.837,210.166l72.844,37.617c0,0 7.305,-25.988 11.366,-40.435c1.559,-5.546 6.665,-9.341 12.424,-9.235c13.907,0.255 37.733,0.693 37.733,0.693c16.433,-3.999 15.272,-26.672 23.532,-54.188l17.174,-4.3l-24.784,-29.192c5.489,-16.192 14.288,-34.23 7.59,-43.628c-5.956,2.608 -10.012,2.627 -15.845,6.593c-7.794,5.299 -39.827,-1.261 -53.438,0.267c-23.426,2.63 -12.603,44.205 -12.343,64.325c0.034,2.623 -13.829,-1.534 -11.955,0.691c3.104,3.687 2.964,-21.088 -10.928,-22.081c-20.729,-1.481 -7.895,26.954 -11.871,35.094c-10.799,22.106 -46.1,62.006 -41.499,57.779Z" style="fill:#f9bc91;stroke:#000;stroke-width:1px;"/><path id="cuerpo" d="M288,581.296c59.603,19.499 121.148,12.295 182.646,5.734c8.532,-73.897 13.45,-151.61 5.239,-243.191c-14.651,-32.163 -30.805,-57.308 -47.51,-79.879l-104.486,-54.338c-49.441,23.315 -23.185,149.771 -15.171,251.372c-1.733,41.46 -8.515,81.593 -20.718,120.302Z" style="fill:#342e37;stroke:#000;stroke-width:1px;"/><path id="brazo" d="M314.106,285.567c-25.487,8.706 137.974,203.968 191.377,206.946c21.781,1.214 60.477,-47.405 46.537,-52.482c-71.799,-32.632 -128.553,-80.148 -153.009,-159.612c-59.67,-79.499 -107.631,-103.807 -84.905,5.148Z" style="fill:#342e37;stroke:#000;stroke-width:1px;"/><path id="pantalones" d="M339.209,969.41l100.996,-6.077c19.12,-136.384 23.511,-256.941 26.972,-376.498l-159.214,-0.716l32.429,169.746c-22.967,2.15 -1.183,213.545 -1.183,213.545Z" style="fill:#121d30;stroke:#000;stroke-width:1px;"/><ellipse cx="452.818" cy="108.715" rx="12.974" ry="16.577" style="fill:#342e37;"/><ellipse cx="455.701" cy="111.551" rx="4.325" ry="7.198" style="fill:#fff;"/><path d="M446.638,166.695c0.619,4.089 15.586,7.011 27.677,7.538" style="fill:none;stroke:#000;stroke-width:1px;"/></svg>